# xmcd
#
# Track frame offsets:
#	150
#	14170
#	33090
#	47865
#	64475
#	74203
#	92556
#	109912
#	124412
#	135246
#	154049
#	169553
#	178430
#	194047
#	216346
#	224175
#	246570
#	255458
#	284163
#
# Disc length: 4704 seconds
#
# Revision: 0
# Processed by: cddbd v1.5.2PL0 Copyright (c) Steve Scherf et al.
# Submitted via: dBpowerAMP V4.0
#
DISCID=44125e13
DTITLE=Music Maker - Slavery, prison, women, God and...whiskey
DYEAR=2007
DGENRE=Blues
TTITLE0=Slavery Time Blues
TTITLE1=Moanin'
TTITLE2=Bo Weavil
TTITLE3=Children Support Blues
TTITLE4=Cannonball Blues
TTITLE5=Cedar Street Woman
TTITLE6=Peach Tree Blues
TTITLE7=Alabama Women
TTITLE8=Greasy Greans
TTITLE9=Tied Tongue Blues
TTITLE10=Ni Hidin' Place
TTITLE11=Nina Mae
TTITLE12=My Lord and I
TTITLE13=Lose My Money, Let Me Lose
TTITLE14=Walk On Walker
TTITLE15=Can't You See ?
TTITLE16=Flossie
TTITLE17=Mother Sleep On
TTITLE18=DATA
EXTD=Music Maker, Slavery prison women god and whiskey
EXTT0=
EXTT1=
EXTT2=
EXTT3=
EXTT4=
EXTT5=
EXTT6=
EXTT7=
EXTT8=
EXTT9=
EXTT10=
EXTT11=
EXTT12=
EXTT13=
EXTT14=
EXTT15=
EXTT16=
EXTT17=
EXTT18=
PLAYORDER=
